# xmcd
#
# Track frame offsets: 
#        150
#        8086
#        28291
#        62298
#        69001
#        92170
#        112202
#        129955
#        149809
#        167589
#        188602
#
# Disc length: 2936 seconds
#
# Revision: 0
# Processed by: cddbd v1.5.1PL0 Copyright (c) Steve Scherf et al.
# Submitted via: ExactAudioCopy v0.95a5
#
DISCID=900b760b
DTITLE=Psykick Lyrikah - Des lumières sous la pluie
DYEAR=2004
DGENRE=Hip-Hop
TTITLE0=Fractions
TTITLE1=Le dernier chapitre
TTITLE2=Vois
TTITLE3=Descente
TTITLE4=Ma ville
TTITLE5=L'homme errant
TTITLE6=La sphère
TTITLE7=Trois lettres rouge sang
TTITLE8=La tête à effacer
TTITLE9=Le double
TTITLE10=Des lumières sous la pluie
EXTD=
EXTT0=
EXTT1=
EXTT2=
EXTT3=
EXTT4=
EXTT5=
EXTT6=
EXTT7=
EXTT8=
EXTT9=
EXTT10=
PLAYORDER=
